<?xml version="1.0" standalone="no"?>
<!DOCTYPE svg PUBLIC "-//W3C//DTD SVG 20010904//EN"
 "http://www.w3.org/TR/2001/REC-SVG-20010904/DTD/svg10.dtd">
<svg version="1.0" xmlns="http://www.w3.org/2000/svg"
 width="575.000000pt" height="359.000000pt" viewBox="0 0 575.000000 359.000000"
 preserveAspectRatio="xMidYMid meet">

<g transform="translate(0.000000,359.000000) scale(0.100000,-0.100000)"
fill="#000000" stroke="none">
<path d="M0 1795 l0 -1795 2875 0 2875 0 0 1795 0 1795 -2875 0 -2875 0 0
-1795z m4447 1414 c100 -13 171 -47 227 -110 79 -87 89 -129 94 -386 2 -123 1
-234 -2 -247 -7 -27 -285 -266 -310 -266 -2 0 -6 134 -8 298 -3 331 -6 346
-70 373 -28 12 -259 14 -1428 14 -1561 0 -1427 7 -1466 -72 -18 -36 -19 -74
-22 -740 -2 -587 -5 -703 -16 -703 -22 0 -202 38 -262 56 l-54 15 0 697 c0
440 4 721 11 762 14 88 39 140 95 200 56 59 128 97 209 109 89 13 2905 13
3002 0z m-150 -365 c65 -7 91 -27 103 -79 5 -22 10 -167 10 -322 l0 -281 -173
-105 c-523 -317 -1161 -555 -1758 -656 -245 -42 -381 -54 -639 -55 -256 -1
-336 6 -342 32 -1 9 -1 331 2 714 l5 698 28 27 27 28 688 5 c785 6 1972 2
2049 -6z m464 -1990 c-17 -111 -85 -214 -172 -260 -95 -49 -48 -48 -1533 -51
-845 -2 -1443 0 -1525 6 -175 13 -220 28 -293 102 -67 66 -73 84 -26 75 17 -3
108 -11 202 -17 333 -21 849 29 1192 115 211 52 172 50 984 51 588 0 771 3
793 12 57 26 61 54 65 419 l3 332 87 68 c48 38 118 97 157 131 l70 63 3 -493
c1 -270 -2 -519 -7 -553z m-354 439 c-2 -269 -4 -312 -19 -339 -10 -17 -28
-34 -40 -38 -40 -10 -1385 -7 -1368 4 8 6 62 25 120 44 451 147 915 370 1230
590 36 25 68 46 72 46 4 0 6 -138 5 -307z m-1159 -900 l3 -112 192 -3 193 -3
61 -39 c33 -22 66 -48 72 -58 11 -17 -22 -18 -814 -18 -540 0 -825 3 -825 10
0 12 70 64 122 91 33 17 60 19 218 19 l180 0 0 110 0 110 283 3 c155 1 289 2
297 2 12 0 16 -21 18 -112z"/>
<path d="M2228 2670 c-142 -36 -302 -183 -342 -313 -3 -10 -19 -23 -35 -28
-27 -9 -30 -16 -36 -70 -4 -32 -4 -86 0 -119 6 -51 12 -64 36 -82 15 -12 40
-45 54 -73 67 -131 167 -216 308 -260 94 -30 149 -31 251 -5 138 35 244 116
312 237 20 38 51 82 69 98 30 28 33 36 39 117 10 114 3 145 -34 153 -23 5 -35
19 -64 81 -47 100 -125 178 -228 228 -72 36 -83 39 -185 42 -59 2 -125 -1
-145 -6z m63 -37 c-5 -10 -21 -29 -36 -43 -14 -14 -36 -42 -48 -62 l-21 -38
-88 0 c-48 0 -88 4 -88 8 0 5 20 29 44 54 36 38 58 51 122 71 98 32 129 34
115 10z m241 -17 c62 -27 158 -102 158 -122 0 -10 -18 -13 -86 -12 l-85 2 -44
61 c-24 34 -50 67 -59 74 -48 40 25 38 116 -3z m-146 -8 c38 -42 87 -108 83
-113 -7 -6 -249 -10 -249 -3 0 3 19 30 43 58 23 29 48 61 56 71 19 27 33 24
67 -13z m-241 -203 l-23 -60 -106 -3 -106 -3 10 26 c36 95 44 100 153 100 l94
0 -22 -60z m376 -2 c9 -28 15 -54 11 -57 -11 -11 -361 -7 -368 5 -3 6 4 33 17
60 l23 50 149 -3 150 -3 18 -52z m234 7 c14 -27 25 -54 25 -60 0 -16 -210 -13
-210 3 -1 6 -9 30 -20 52 -11 22 -19 43 -20 48 0 4 45 7 100 7 l100 0 25 -50z
m27 -99 c32 -4 61 -11 65 -15 14 -14 9 -194 -5 -208 -10 -10 -113 -13 -493
-13 -564 0 -512 -13 -507 127 2 47 7 90 11 94 4 5 29 11 55 15 64 9 803 9 874
0z m-637 -325 c13 -33 22 -63 19 -68 -6 -10 -165 -11 -180 0 -20 12 -64 84
-64 103 0 23 19 27 118 26 l83 -2 24 -59z m387 40 c-2 -10 -13 -40 -25 -65
l-22 -46 -80 -3 c-44 -2 -107 -1 -140 3 l-60 6 -23 51 c-13 28 -20 58 -18 65
5 11 42 13 188 11 173 -3 183 -4 180 -22z m248 14 c0 -22 -51 -110 -69 -120
-18 -9 -191 -15 -191 -6 0 2 14 34 31 70 l31 66 99 0 c61 0 99 -4 99 -10z
m-532 -232 c33 -46 57 -84 53 -86 -15 -6 -187 70 -232 103 -73 54 -67 63 47
64 l72 1 60 -82z m206 73 c11 -17 -100 -155 -116 -145 -18 11 -98 126 -98 140
0 11 22 14 104 14 58 0 107 -4 110 -9z m205 0 c12 -8 13 -14 3 -36 -13 -27
-55 -49 -176 -91 -93 -32 -106 -31 -75 4 14 15 40 51 58 80 l33 52 72 0 c39 0
77 -4 85 -9z"/>
<path d="M2178 2240 c-23 -55 -48 -67 -48 -22 0 27 -15 60 -24 52 -2 -3 -8
-21 -13 -40 -13 -48 -35 -44 -51 8 -16 49 -34 57 -25 10 20 -105 64 -161 71
-90 4 39 21 38 40 -1 19 -39 38 -33 56 16 17 49 30 117 21 117 -3 0 -15 -22
-27 -50z"/>
<path d="M2260 2231 c13 -89 50 -130 70 -76 5 14 14 25 20 25 10 0 13 -7 26
-49 4 -11 7 -11 20 0 19 16 34 50 44 102 10 49 -6 48 -26 -2 -23 -58 -44 -61
-44 -6 0 75 -27 64 -45 -18 -8 -39 -28 -29 -38 20 -12 61 -35 64 -27 4z"/>
<path d="M2654 2233 c-11 -59 -37 -67 -42 -13 -4 43 -19 61 -32 40 -16 -25
-11 -66 10 -85 11 -10 20 -26 20 -37 0 -33 31 -19 50 25 20 42 27 117 12 117
-5 0 -13 -21 -18 -47z"/>
<path d="M2500 2231 c0 -53 25 -104 48 -99 21 5 18 49 -3 61 -8 4 -15 18 -15
31 0 13 -7 29 -15 36 -13 11 -15 7 -15 -29z"/>
<path d="M3893 2660 c-31 -13 -29 -38 7 -92 44 -67 200 -206 235 -210 38 -4
43 15 44 164 1 149 2 148 -154 147 -60 0 -120 -4 -132 -9z m238 -35 c15 -10
12 -225 -3 -225 -24 1 -218 198 -218 221 0 4 12 10 28 12 33 6 179 0 193 -8z"/>
<path d="M3574 2616 c-25 -25 -34 -43 -34 -67 1 -31 24 -58 228 -266 173 -177
234 -234 258 -239 68 -13 137 60 118 126 -10 33 -358 400 -428 451 -55 41 -98
39 -142 -5z m312 -217 c116 -116 217 -221 224 -234 24 -44 -36 -97 -90 -80
-22 7 -402 387 -432 433 -23 35 -23 38 7 67 49 50 61 43 291 -186z"/>
</g>
</svg>
