<?xml version="1.0" standalone="no"?>
<!DOCTYPE svg PUBLIC "-//W3C//DTD SVG 20010904//EN"
 "http://www.w3.org/TR/2001/REC-SVG-20010904/DTD/svg10.dtd">
<svg version="1.0" xmlns="http://www.w3.org/2000/svg"
 width="575.000000pt" height="359.000000pt" viewBox="0 0 575.000000 359.000000"
 preserveAspectRatio="xMidYMid meet">

<g transform="translate(0.000000,359.000000) scale(0.100000,-0.100000)"
fill="#000000" stroke="none">
<path d="M5216 3210 c-26 -41 -62 -100 -79 -130 -22 -38 -39 -56 -55 -58 -13
-2 -79 11 -148 28 -69 18 -127 30 -130 27 -3 -2 19 -24 48 -48 79 -66 129
-120 145 -157 13 -32 12 -35 -53 -145 -36 -61 -75 -122 -87 -134 -11 -13 -17
-23 -14 -23 4 0 58 27 120 60 68 36 126 60 145 60 26 0 42 -14 119 -102 48
-56 94 -103 102 -106 11 -4 13 6 8 54 -4 33 -10 100 -13 151 l-7 92 34 15
c174 76 227 102 228 111 1 14 -37 23 -164 40 -60 9 -116 17 -122 20 -9 3 -13
37 -14 122 0 65 -3 136 -7 158 l-8 40 -48 -75z"/>
<path d="M4460 3209 c131 -20 235 -100 281 -217 21 -52 23 -78 27 -280 2 -123
1 -234 -2 -247 -7 -28 -286 -265 -313 -265 -4 0 -8 134 -8 298 0 261 -2 301
-17 328 -34 62 49 59 -1478 59 -1561 0 -1427 7 -1466 -72 -18 -36 -19 -74 -22
-740 -2 -587 -5 -703 -16 -703 -22 0 -202 38 -262 56 l-54 15 0 707 c0 765 2
798 54 886 32 54 106 122 159 147 23 10 36 19 29 19 -31 0 -113 -53 -159 -103
-39 -44 -55 -71 -72 -129 -35 -112 -38 -117 -83 -137 -89 -38 -225 -148 -393
-316 -199 -198 -284 -307 -360 -460 -115 -233 -136 -377 -84 -567 73 -262 297
-447 664 -551 216 -61 304 -69 770 -68 317 0 407 3 480 17 50 9 119 20 155 24
179 23 478 101 805 212 353 119 636 243 868 380 26 15 50 28 52 28 9 0 169 98
264 162 120 80 320 240 436 348 135 126 275 303 340 430 32 63 60 148 53 156
-3 2 -21 -18 -41 -44 -109 -143 -337 -360 -500 -475 -153 -108 -417 -272 -563
-347 -38 -20 -81 -44 -95 -53 -14 -9 -45 -23 -70 -31 -24 -8 -105 -40 -179
-71 -214 -89 -404 -158 -555 -203 -222 -66 -628 -153 -796 -172 -52 -6 -119
-15 -149 -20 -113 -19 -326 -33 -419 -27 -145 9 -513 74 -616 109 -367 125
-583 402 -545 698 18 145 145 373 304 548 28 31 83 94 120 140 68 81 80 90 90
74 3 -5 6 -296 7 -648 1 -351 4 -647 6 -656 5 -22 95 -49 258 -77 393 -69 920
-49 1343 50 199 47 530 152 792 254 52 20 124 48 160 61 98 38 471 224 589
295 116 68 401 282 478 358 57 56 102 155 85 188 -5 10 -12 77 -16 148 -11
228 -42 322 -133 405 -59 54 -119 79 -208 85 l-60 4 65 -10z m-127 -370 c70
-18 72 -24 75 -370 l3 -307 -183 -110 c-430 -258 -891 -448 -1396 -577 -355
-89 -644 -127 -992 -129 -256 -1 -336 6 -341 32 -2 9 -2 331 1 714 l5 698 28
27 27 28 688 5 c928 7 2038 1 2085 -11z"/>
<path d="M2228 2670 c-142 -36 -302 -183 -342 -313 -3 -10 -19 -23 -35 -28
-27 -9 -30 -16 -36 -70 -4 -32 -4 -86 0 -119 6 -51 12 -64 36 -82 15 -12 43
-50 61 -86 18 -35 48 -81 66 -102 73 -86 251 -170 361 -170 75 0 196 35 264
77 81 50 127 98 173 180 20 38 51 82 69 98 30 28 33 36 39 117 10 113 3 145
-33 153 -22 5 -34 20 -62 78 -47 98 -131 182 -231 232 -72 35 -83 38 -185 41
-59 2 -125 -1 -145 -6z m63 -37 c-5 -10 -21 -29 -36 -43 -14 -14 -36 -42 -48
-62 l-21 -38 -88 0 c-48 0 -88 4 -88 8 0 5 20 29 44 54 36 38 58 51 122 71 98
32 129 34 115 10z m241 -17 c62 -27 158 -102 158 -122 0 -10 -18 -13 -86 -12
l-85 2 -44 61 c-24 34 -50 67 -59 74 -48 40 25 38 116 -3z m-146 -8 c38 -42
87 -108 83 -113 -7 -6 -249 -10 -249 -3 0 3 19 30 43 58 23 29 48 61 56 71 19
27 33 24 67 -13z m-241 -203 l-23 -60 -105 -2 -106 -2 10 25 c35 94 43 99 152
99 l94 0 -22 -60z m376 -2 c9 -28 15 -54 11 -57 -11 -11 -361 -7 -368 5 -3 6
4 33 17 60 l23 50 149 -3 150 -3 18 -52z m234 7 c14 -27 25 -54 25 -60 0 -6
-39 -10 -103 -10 l-102 0 -20 53 c-11 28 -21 55 -23 60 -2 4 42 7 97 7 l101 0
25 -50z m27 -99 c32 -4 61 -11 65 -15 14 -14 9 -194 -5 -208 -10 -10 -113 -13
-493 -13 -564 0 -512 -13 -507 127 2 47 7 90 11 94 4 5 29 11 55 15 64 9 803
9 874 0z m-637 -325 c13 -33 22 -63 19 -68 -6 -10 -165 -11 -180 0 -20 12 -64
84 -64 103 0 23 19 27 118 26 l83 -2 24 -59z m387 40 c-2 -10 -13 -40 -25 -65
l-22 -46 -80 -3 c-44 -2 -107 -1 -140 3 l-60 6 -23 51 c-13 28 -20 58 -18 65
5 11 42 13 188 11 173 -3 183 -4 180 -22z m248 14 c0 -22 -51 -110 -69 -120
-18 -9 -191 -15 -191 -6 0 2 14 34 31 70 l31 66 99 0 c61 0 99 -4 99 -10z
m-531 -235 c33 -47 57 -85 53 -85 -25 0 -191 75 -233 105 -73 54 -67 63 48 64
l71 1 61 -85z m205 76 c11 -17 -100 -155 -116 -145 -18 11 -98 126 -98 140 0
11 22 14 104 14 58 0 107 -4 110 -9z m205 0 c12 -8 13 -14 3 -36 -13 -27 -55
-49 -176 -91 -93 -32 -106 -31 -75 4 14 15 40 51 58 80 l33 52 72 0 c39 0 77
-4 85 -9z"/>
<path d="M2178 2240 c-22 -53 -48 -67 -48 -26 0 61 -26 75 -36 20 -5 -29 -3
-39 10 -46 9 -5 21 -21 26 -34 14 -37 37 -29 54 19 17 49 30 117 21 117 -3 0
-15 -22 -27 -50z"/>
<path d="M2017 2248 c19 -104 64 -161 71 -92 2 24 -1 33 -15 36 -12 3 -24 21
-31 47 -15 49 -34 55 -25 9z"/>
<path d="M2260 2231 c13 -89 50 -130 70 -76 5 14 14 25 20 25 10 0 13 -7 26
-49 4 -11 7 -11 20 0 19 16 34 50 44 102 10 49 -6 48 -26 -2 -23 -58 -44 -61
-44 -6 0 75 -27 64 -45 -18 -8 -39 -28 -29 -38 20 -12 61 -35 64 -27 4z"/>
<path d="M2654 2233 c-11 -59 -37 -67 -42 -13 -4 43 -19 61 -32 40 -16 -25
-11 -66 10 -85 11 -10 20 -26 20 -37 0 -33 31 -19 50 25 20 42 27 117 12 117
-5 0 -13 -21 -18 -47z"/>
<path d="M2500 2231 c0 -53 25 -104 48 -99 21 5 18 49 -3 61 -8 4 -15 18 -15
31 0 13 -7 29 -15 36 -13 11 -15 7 -15 -29z"/>
<path d="M3893 2660 c-31 -13 -29 -38 7 -92 44 -67 200 -206 235 -210 38 -4
43 15 44 164 1 149 2 148 -154 147 -60 0 -120 -4 -132 -9z m238 -35 c15 -10
12 -225 -3 -225 -24 1 -218 197 -218 221 0 4 12 10 28 12 33 6 179 0 193 -8z"/>
<path d="M3574 2616 c-25 -25 -34 -42 -34 -67 1 -30 25 -58 228 -266 174 -178
234 -234 258 -239 66 -13 132 54 120 120 -5 24 -55 82 -207 239 -111 114 -216
216 -234 227 -50 31 -91 26 -131 -14z m304 -208 c112 -112 212 -215 223 -230
19 -25 19 -29 4 -58 -16 -32 -50 -46 -85 -35 -22 7 -402 387 -432 433 -23 35
-23 38 7 67 49 50 61 43 283 -177z"/>
<path d="M1398 3203 c7 -3 16 -2 19 1 4 3 -2 6 -13 5 -11 0 -14 -3 -6 -6z"/>
<path d="M4727 1898 c-153 -153 -393 -322 -732 -514 -168 -96 -243 -132 -485
-234 -373 -157 -468 -192 -620 -230 -47 -12 -119 -32 -160 -45 -99 -31 -305
-79 -405 -96 -43 -7 -74 -14 -67 -17 20 -6 190 25 382 70 l175 42 770 0 c591
1 776 4 798 13 57 26 61 54 65 419 l3 331 112 91 c62 50 134 110 160 133 l48
42 -3 -541 c-2 -298 0 -530 4 -515 19 73 46 1127 28 1121 -3 -1 -36 -32 -73
-70z m-320 -605 c-2 -269 -4 -312 -19 -339 -10 -17 -28 -34 -40 -38 -40 -10
-1385 -6 -1366 4 9 6 97 38 195 71 229 78 406 151 618 254 168 82 427 233 541
313 33 23 62 42 66 42 4 0 6 -138 5 -307z"/>
<path d="M4741 773 c-28 -86 -112 -168 -202 -200 -24 -8 -88 -18 -143 -23 -56
-5 -672 -10 -1371 -11 -1043 -2 -1193 -4 -841 -10 236 -5 433 -12 438 -17 14
-14 22 -113 14 -167 -6 -34 -13 -48 -29 -55 -19 -8 -18 -9 11 -9 l32 -1 0 110
0 110 280 2 c154 1 288 2 298 2 15 1 17 -12 20 -111 2 -104 4 -113 22 -113 16
0 18 4 10 24 -5 13 -10 66 -11 118 l-2 93 48 6 c27 3 269 6 539 8 270 1 532 6
581 12 107 12 180 44 236 101 40 42 94 139 87 159 -2 6 -10 -6 -17 -28z"/>
<path d="M2208 753 c6 -2 18 -2 25 0 6 3 1 5 -13 5 -14 0 -19 -2 -12 -5z"/>
<path d="M1156 720 c31 -54 96 -115 156 -144 48 -24 70 -28 164 -31 l109 -3
-90 7 c-49 4 -113 15 -141 25 -82 27 -195 136 -163 157 11 7 11 9 -3 9 -9 0
-24 3 -34 7 -16 6 -15 3 2 -27z"/>
<path d="M2005 738 c-49 -5 -133 -13 -185 -18 -88 -8 -85 -8 40 -3 74 2 178
11 230 18 110 15 52 17 -85 3z"/>
<path d="M1233 723 c9 -2 25 -2 35 0 9 3 1 5 -18 5 -19 0 -27 -2 -17 -5z"/>
<path d="M1338 713 c18 -2 45 -2 60 0 15 2 0 4 -33 4 -33 0 -45 -2 -27 -4z"/>
<path d="M1548 703 c29 -2 74 -2 100 0 26 2 2 3 -53 3 -55 0 -76 -1 -47 -3z"/>
<path d="M2249 280 c-29 -8 -62 -29 -134 -81 -27 -20 -60 -40 -72 -44 -13 -3
-23 -11 -23 -17 0 -7 10 -7 28 -2 41 12 1525 16 1682 5 82 -6 139 -6 144 -1 6
6 2 12 -10 16 -10 4 -44 24 -74 44 -68 46 -119 72 -131 68 -5 -2 15 -18 45
-37 29 -19 59 -43 65 -53 11 -17 -19 -18 -814 -18 -540 0 -825 3 -825 10 0 11
66 61 115 88 21 12 66 19 155 23 l125 5 -125 1 c-69 1 -137 -2 -151 -7z"/>
</g>
</svg>
